Coordinates
version=1
nRows=4
nColumns=107
inDegrees=yes

Units are S.I. units (second, meters, Newtons, ...)
If the header above contains a line with 'inDegrees', this indicates whether rotational values are in degrees (yes) or radians (no).

endheader
time	sternoclavicular_r2	sternoclavicular_r3	unrotscap_r3	unrotscap_r2	acromioclavicular_r2	acromioclavicular_r3	acromioclavicular_r1	unrothum_r1	unrothum_r3	unrothum_r2	elv_angle	shoulder_elv	shoulder1_r2	shoulder_rot	elbow_flexion	pro_sup	deviation	flexion	proximal_distal_r1	proximal_distal_r3	cmc_flexion	cmc_abduction	mp_flexion	ip_flexion	mcp2_flexion	mcp2_abduction	pm2_flexion	md2_flexion	mcp3_flexion	mcp3_abduction	pm3_flexion	md3_flexion	mcp4_flexion	mcp4_abduction	pm4_flexion	md4_flexion	mcp5_flexion	mcp5_abduction	pm5_flexion	md5_flexion	bicpt_tx	bicpt_ty	bicpt_tz	bicpt2_tx	bicpt2_ty	bicpt2_tz	ptpt_tx	ptpt_ty	ptpt_tz	FCUpt_tx	FCUpt_ty	FCUpt_tz	EDCpt_tx	EDCpt_ty	EDCpt_tz	APLpt_tx	APLpt_ty	APLpt_tz	FPLpt_tx	FPLpt_ty	FPLpt_tz	FPLpt2_tx	FPLpt2_ty	FPLpt2_tz	PEC1pt2_tx	PEC1pt2_ty	PEC1pt2_tz	PEC1pt3_tx	PEC1pt3_ty	PEC1pt3_tz	PEC2pt2_tx	PEC2pt2_ty	PEC2pt2_tz	PEC2pt3_tx	PEC2pt3_ty	PEC2pt3_tz	PEC3pt2_tx	PEC3pt2_ty	PEC3pt2_tz	PEC3pt3_tx	PEC3pt3_ty	PEC3pt3_tz	DELT2pt2a_tx	DELT2pt2a_ty	DELT2pt2a_tz	DELT2pt2_tx	DELT2pt2_ty	DELT2pt2_tz	LAT1pt2_tx	LAT1pt2_ty	LAT1pt2_tz	LAT1pt3_tx	LAT1pt3_ty	LAT1pt3_tz	LAT2pt2_tx	LAT2pt2_ty	LAT2pt2_tz	LAT2pt3_tx	LAT2pt3_ty	LAT2pt3_tz	LAT3pt2_tx	LAT3pt2_ty	LAT3pt2_tz	LAT3pt3_tx	LAT3pt3_ty	LAT3pt3_tz
      1.20000000	     -0.30441890	      0.12893748	     -0.12893748	      0.30441890	     -0.06163864	      0.49814177	      0.22391130	     -0.22391130	     -0.49814177	      0.06163864	    114.69353983	     72.07388159	     -2.00177990	    -88.29979651	     30.08487168	     87.41818785	      0.42695600	     -1.18709592	      0.43023261	     -0.59354796	     -9.49631330	     16.95790697	     -4.85063468	      1.20593150	     32.57596971	    -13.88218025	     12.15042799	    -19.10847306	     12.15413733	    -14.11809419	     19.56894346	     20.17398230	    -15.30480616	    -11.75598786	     25.53807534	     35.92852064	    -46.64703803	      3.38910992	     19.09050817	      5.04269004	      0.00089511	     -0.03104819	     -0.00485541	      0.01409102	     -0.01837270	     -0.00083178	      0.00109078	     -0.06907664	     -0.00709200	      0.01290123	     -0.18218943	      0.00012361	     -0.01049016	      0.00365615	     -0.00080330	      0.00003443	      0.00001377	      0.00006887	      0.00004408	      0.00013223	      0.00007438	     -0.00120467	      0.00028751	      0.00034501	      0.00236242	      0.00828850	      0.00576592	     -0.00772793	      0.01865914	     -0.01769816	      0.00236242	      0.00828850	      0.00576592	      0.00052053	      0.01729775	     -0.00908932	      0.00378992	      0.00460913	      0.01556854	      0.00000000	      0.00694225	      0.00000000	     -0.00676694	     -0.03127208	     -0.00571908	      0.02199153	     -0.00285017	     -0.04453163	     -0.00084086	      0.01409446	     -0.00576592	      0.00232238	      0.02034087	     -0.01681725	     -0.00564579	      0.01221253	     -0.00516530	     -0.01177208	      0.02578645	     -0.02886962	     -0.02210268	      0.01365401	     -0.00692711	     -0.01465503	      0.02979056	     -0.03607701
      1.23333333	     -0.30244879	      0.12810303	     -0.12810303	      0.30244879	     -0.06123973	      0.49491794	      0.22246221	     -0.22246221	     -0.49491794	      0.06123973	    114.30021938	     71.60744046	     -1.99491516	    -87.38018206	     31.29147701	     88.30201083	      0.42763111	     -1.19584717	      0.43067676	     -0.59792358	     -8.08750190	     16.61658665	     -3.74519151	      1.62242436	     29.31186667	    -14.12245296	     11.44231888	    -19.96601007	      7.33742891	    -13.66494179	     16.55406171	     18.35053792	    -21.27816486	     -9.39498001	     22.83670046	     34.52121166	    -50.99728061	      3.91327824	     17.92266575	      4.97395181	      0.00093502	     -0.03118648	     -0.00487769	      0.01399591	     -0.01870048	     -0.00067812	      0.00102548	     -0.06911886	     -0.00716320	      0.01300326	     -0.18215903	      0.00014919	     -0.01059622	      0.00370515	     -0.00083257	      0.00002592	      0.00001037	      0.00005185	      0.00003318	      0.00009955	      0.00005599	     -0.00087545	      0.00023851	      0.00028621	      0.00234713	      0.00823486	      0.00572860	     -0.00767792	      0.01853839	     -0.01758362	      0.00234713	      0.00823486	      0.00572860	      0.00051717	      0.01718580	     -0.00903050	      0.00377152	      0.00457930	      0.01552044	      0.00000000	      0.00685219	      0.00000000	     -0.00672315	     -0.03106970	     -0.00564421	      0.02229536	     -0.00282254	     -0.04399691	     -0.00083542	      0.01400324	     -0.00572860	      0.00230735	      0.02020923	     -0.01670842	     -0.00560925	      0.01213349	     -0.00513187	     -0.01169589	      0.02561957	     -0.02868278	     -0.02195963	      0.01356564	     -0.00688228	     -0.01456019	      0.02959777	     -0.03584353
      1.26666667	     -0.30073248	      0.12737608	     -0.12737608	      0.30073248	     -0.06089221	      0.49210941	      0.22119979	     -0.22119979	     -0.49210941	      0.06089221	    113.92062439	     71.20108680	     -1.98828998	    -86.20559386	     32.19711434	     88.41873767	      0.42648643	     -1.19172212	      0.42992336	     -0.59586106	     -8.52032024	     13.29564351	     -0.76543031	      3.11165559	     24.12593652	    -14.09459838	     14.67230648	    -27.79945460	      2.85602862	    -12.79434821	     14.40971308	     12.65904641	    -26.44663978	     -6.67911235	     22.43809054	     27.04694136	    -55.67578530	      5.61550986	     19.96936921	      5.08486017	      0.00096498	     -0.03129028	     -0.00489441	      0.01398319	     -0.01894650	     -0.00065773	      0.00101685	     -0.06912444	     -0.00717260	      0.01301676	     -0.18215500	      0.00015262	     -0.01061022	      0.00371165	     -0.00083647	      0.00002995	      0.00001198	      0.00005990	      0.00003833	      0.00011500	      0.00006469	     -0.00096998	      0.00025334	      0.00030401	      0.00233382	      0.00818813	      0.00569609	     -0.00763435	      0.01843319	     -0.01748384	      0.00233382	      0.00818813	      0.00569609	      0.00051423	      0.01708828	     -0.00897926	      0.00375543	      0.00455332	      0.01547808	      0.00000000	      0.00677423	      0.00000000	     -0.00668500	     -0.03089339	     -0.00557939	      0.02266685	     -0.00278658	     -0.04330317	     -0.00083068	      0.01392378	     -0.00569609	      0.00229426	      0.02009455	     -0.01661360	     -0.00557742	      0.01206464	     -0.00510275	     -0.01162952	      0.02547419	     -0.02852001	     -0.02183502	      0.01348866	     -0.00684322	     -0.01447757	      0.02942981	     -0.03564013
      1.30000000	     -0.29969757	      0.12693775	     -0.12693775	      0.29969757	     -0.06068266	      0.49041592	      0.22043858	     -0.22043858	     -0.49041592	      0.06068266	    113.42151565	     70.95606328	     -1.97957889	    -84.67501216	     32.65770849	     88.51827462	      0.42607212	     -1.19289779	      0.42965020	     -0.59644889	     -6.87709348	     10.76685724	     -0.70237406	      3.03140264	     21.19069028	    -14.02912797	     12.92036724	    -28.90652900	     -0.80932614	    -11.89297258	     12.79720237	     12.33708735	    -29.99163902	     -4.99715205	     20.92804106	     26.19674091	    -57.18688114	      6.40016900	     19.34195876	      5.05090386	      0.00098022	     -0.03134307	     -0.00490291	      0.01397234	     -0.01907163	     -0.00064034	      0.00100950	     -0.06912920	     -0.00718062	      0.01302827	     -0.18215156	      0.00015555	     -0.01062217	      0.00371719	     -0.00083980	      0.00002880	      0.00001152	      0.00005761	      0.00003687	      0.00011060	      0.00006222	     -0.00064309	      0.00019820	      0.00023784	      0.00232578	      0.00815995	      0.00567649	     -0.00760807	      0.01836975	     -0.01742367	      0.00232578	      0.00815995	      0.00567649	      0.00051246	      0.01702947	     -0.00894836	      0.00374570	      0.00453765	      0.01545234	      0.00000000	      0.00672744	      0.00000000	     -0.00666199	     -0.03078707	     -0.00554049	      0.02312334	     -0.00273865	     -0.04238214	     -0.00082782	      0.01387586	     -0.00567649	      0.00228636	      0.02002539	     -0.01655643	     -0.00555823	      0.01202312	     -0.00508519	     -0.01158950	      0.02538652	     -0.02842187	     -0.02175988	      0.01344224	     -0.00681967	     -0.01442775	      0.02932853	     -0.03551748
